<svg width="26" height="18" viewBox="0 0 26 18" fill="none" xmlns="http://www.w3.org/2000/svg">
<path opacity="0.9" d="M25.065 2.81631C24.7706 1.70775 23.9031 0.83468 22.8017 0.538392C20.8053 0 12.8 0 12.8 0C12.8 0 4.79469 0 2.79824 0.538392C1.69682 0.834727 0.829358 1.70775 0.534936 2.81631C0 4.82565 0 9.01794 0 9.01794C0 9.01794 0 13.2102 0.534936 15.2196C0.829358 16.3281 1.69682 17.1648 2.79824 17.4611C4.79469 17.9995 12.8 17.9995 12.8 17.9995C12.8 17.9995 20.8053 17.9995 22.8017 17.4611C23.9031 17.1648 24.7706 16.3281 25.065 15.2196C25.6 13.2102 25.6 9.01794 25.6 9.01794C25.6 9.01794 25.6 4.82565 25.065 2.81631V2.81631ZM10.1818 12.8242V5.21166L16.8727 9.01804L10.1818 12.8242V12.8242Z" fill="#FCFCFC"/>
</svg>
