<svg width="18" height="15" viewBox="0 0 18 15" fill="none" xmlns="http://www.w3.org/2000/svg">
<path opacity="0.9" d="M16.1499 3.6453C16.1613 3.80519 16.1613 3.96512 16.1613 4.12501C16.1613 9.00184 12.4494 14.6211 5.66503 14.6211C3.5749 14.6211 1.63327 14.0157 0 12.965C0.296968 12.9993 0.582475 13.0107 0.890869 13.0107C2.61548 13.0107 4.20308 12.4282 5.47086 11.4346C3.84902 11.4003 2.48986 10.3382 2.02158 8.87623C2.25002 8.91047 2.47844 8.93332 2.71831 8.93332C3.04952 8.93332 3.38077 8.88762 3.68913 8.80771C1.99876 8.46504 0.730941 6.9803 0.730941 5.18717V5.14151C1.22204 5.41562 1.79316 5.58693 2.39846 5.60975C1.40479 4.9473 0.753793 3.81662 0.753793 2.53743C0.753793 1.85218 0.936502 1.22401 1.25632 0.675787C3.07234 2.91434 5.80207 4.37623 8.86299 4.53616C8.80589 4.26204 8.77161 3.97654 8.77161 3.69101C8.77161 1.65801 10.4163 0.00195312 12.4607 0.00195312C13.5229 0.00195312 14.4823 0.447379 15.1562 1.16692C15.9899 1.00703 16.7894 0.698638 17.4976 0.276064C17.2234 1.13267 16.641 1.85221 15.8757 2.30903C16.6182 2.22912 17.3377 2.02349 18.0001 1.73799C17.4977 2.46892 16.8694 3.1199 16.1499 3.6453Z" fill="#FCFCFC"/>
</svg>
