<svg width="18" height="18" viewBox="0 0 18 18" fill="none" xmlns="http://www.w3.org/2000/svg">
<path opacity="0.9" d="M9.00201 4.38396C6.44808 4.38396 4.38806 6.44392 4.38806 8.9978C4.38806 11.5517 6.44808 13.6116 9.00201 13.6116C11.5559 13.6116 13.616 11.5517 13.616 8.9978C13.616 6.44392 11.5559 4.38396 9.00201 4.38396ZM9.00201 11.9974C7.35159 11.9974 6.00234 10.6522 6.00234 8.9978C6.00234 7.3434 7.34757 5.9982 9.00201 5.9982C10.6564 5.9982 12.0017 7.3434 12.0017 8.9978C12.0017 10.6522 10.6524 11.9974 9.00201 11.9974ZM14.8809 4.19523C14.8809 4.79354 14.399 5.27139 13.8047 5.27139C13.2064 5.27139 12.7285 4.78953 12.7285 4.19523C12.7285 3.60093 13.2104 3.11906 13.8047 3.11906C14.399 3.11906 14.8809 3.60093 14.8809 4.19523ZM17.9368 5.28745C17.8685 3.84588 17.5392 2.56894 16.4831 1.51687C15.431 0.464798 14.154 0.135524 12.7124 0.0632446C11.2267 -0.0210815 6.77334 -0.0210815 5.28756 0.0632446C3.84997 0.131509 2.57301 0.460782 1.5169 1.51285C0.460792 2.56492 0.135527 3.84186 0.063246 5.28344C-0.021082 6.76918 -0.021082 11.2224 0.063246 12.7082C0.131511 14.1497 0.460792 15.4267 1.5169 16.4787C2.57301 17.5308 3.84596 17.8601 5.28756 17.9324C6.77334 18.0167 11.2267 18.0167 12.7124 17.9324C14.154 17.8641 15.431 17.5348 16.4831 16.4787C17.5352 15.4267 17.8645 14.1497 17.9368 12.7082C18.0211 11.2224 18.0211 6.7732 17.9368 5.28745ZM16.0173 14.3023C15.7041 15.0894 15.0977 15.6957 14.3066 16.0129C13.122 16.4828 10.3111 16.3743 9.00201 16.3743C7.69292 16.3743 4.87797 16.4787 3.69738 16.0129C2.91032 15.6997 2.30396 15.0934 1.98673 14.3023C1.5169 13.1177 1.62532 10.3069 1.62532 8.9978C1.62532 7.68874 1.52091 4.87385 1.98673 3.69329C2.29994 2.90624 2.9063 2.2999 3.69738 1.98267C4.88199 1.51285 7.69292 1.62127 9.00201 1.62127C10.3111 1.62127 13.126 1.51687 14.3066 1.98267C15.0937 2.29588 15.7001 2.90223 16.0173 3.69329C16.4871 4.87787 16.3787 7.68874 16.3787 8.9978C16.3787 10.3069 16.4871 13.1218 16.0173 14.3023Z" fill="#FCFCFC"/>
</svg>
