<svg width="19" height="29" viewBox="0 0 19 29" fill="none" xmlns="http://www.w3.org/2000/svg">
<path d="M13.1651 5.4V18.9H5.77025V5.4H13.1651ZM15.9382 0H2.99719C1.46622 0 0.224121 1.20937 0.224121 2.7V26.1C0.224121 27.5906 1.46622 28.8 2.99719 28.8H15.9382C17.4691 28.8 18.7112 27.5906 18.7112 26.1V2.7C18.7112 1.20937 17.4691 0 15.9382 0ZM2.99719 27C2.48879 27 2.07283 26.595 2.07283 26.1V2.7C2.07283 2.205 2.48879 1.8 2.99719 1.8H15.9382C16.4465 1.8 16.8625 2.205 16.8625 2.7V26.1C16.8625 26.595 16.4465 27 15.9382 27H2.99719ZM14.3205 3.6H4.61481C4.23351 3.6 3.92154 3.90375 3.92154 4.275V20.025C3.92154 20.3962 4.23351 20.7 4.61481 20.7H14.3205C14.7018 20.7 15.0138 20.3962 15.0138 20.025V4.275C15.0138 3.90375 14.7018 3.6 14.3205 3.6ZM11.5475 23.4H7.38787C7.00658 23.4 6.6946 23.7037 6.6946 24.075V24.525C6.6946 24.8962 7.00658 25.2 7.38787 25.2H11.5475C11.9288 25.2 12.2407 24.8962 12.2407 24.525V24.075C12.2407 23.7037 11.9288 23.4 11.5475 23.4Z" fill="#FCFCFC"/>
</svg>
