<svg width="27" height="35" viewBox="0 0 27 35" fill="none" xmlns="http://www.w3.org/2000/svg">
<path d="M5.62501 14.4987C5.63809 17.0976 5.59274 22.4279 3.26581 30.2495H23.733C21.4082 22.457 21.3624 17.114 21.375 14.4987L24.2558 11.6178C24.4125 11.4611 24.5368 11.2751 24.6216 11.0703C24.7064 10.8656 24.7501 10.6461 24.7501 10.4245V2.68563C24.7501 1.75359 23.9945 0.998047 23.0626 0.998047H3.93751C3.00551 0.998047 2.25001 1.75359 2.25001 2.68563V10.4245C2.25001 10.8721 2.42783 11.3014 2.74423 11.6179L5.62501 14.4987ZM4.50001 3.24816H7.87502V6.62333H10.125V3.24816H16.875V6.62333H19.125V3.24816H22.5V10.1915L19.1295 13.5622C19.1156 16.4382 19.0483 21.0394 20.7841 27.9994H6.21311C7.9506 21.0246 7.88479 16.4361 7.87031 13.5621L4.50001 10.1915V3.24816ZM15.4688 18.999H11.5313V15.0613C11.5313 13.9739 12.4127 13.0924 13.5 13.0924C14.5873 13.0924 15.4688 13.9739 15.4688 15.0613V18.999ZM27.0001 33.3434V33.906C27.0001 34.3719 26.6223 34.7498 26.1563 34.7498H0.843752C0.37779 34.7498 0 34.3719 0 33.906V33.3434C0 32.8775 0.37779 32.4996 0.843752 32.4996H26.1563C26.6223 32.4996 27.0001 32.8775 27.0001 33.3434Z" fill="white"/>
</svg>
