<svg width="18" height="15" viewBox="0 0 18 15" fill="none" xmlns="http://www.w3.org/2000/svg">
<path opacity="0.9" d="M2.1323 2.91561C2.15463 2.69606 2.06904 2.47651 1.9053 2.32767L0.226999 0.303365V0.00195312H5.44425L9.47812 8.84711L13.0245 0.00195312H17.9999V0.303365L16.5635 1.68019C16.4407 1.77322 16.3774 1.9295 16.4034 2.08207V12.2036C16.3774 12.3561 16.4407 12.5124 16.5635 12.6055L17.9664 13.9823V14.2837H10.9071V13.9823L12.3621 12.572C12.5035 12.4306 12.5035 12.3859 12.5035 12.1701V3.99102L8.45849 14.2576H7.91146L3.20775 3.99102V10.8714C3.16682 11.1617 3.26357 11.4519 3.46824 11.6603L5.35866 13.9525V14.2539H0V13.9562L1.89042 11.6603C2.09136 11.4519 2.1844 11.1579 2.1323 10.8714V2.91561Z" fill="#FCFCFC"/>
</svg>
