<svg width="18" height="18" viewBox="0 0 18 18" fill="none" xmlns="http://www.w3.org/2000/svg">
<path opacity="0.9" d="M18 0.992384V17.0031C18 17.5535 17.554 17.9955 17.0076 17.9955H12.4192V11.0287H14.7576L15.1071 8.31272H12.4152V6.57705C12.4152 5.78958 12.6321 5.25521 13.7612 5.25521H15.1996V2.82448C14.9504 2.79234 14.0987 2.716 13.1022 2.716C11.029 2.716 9.6067 3.98159 9.6067 6.30786V8.31272H7.26027V11.0287H9.6067V17.9995H0.992411C0.445982 17.9995 0 17.5535 0 17.0071V0.992384C0 0.44597 0.445982 0 0.992411 0H17.0036C17.554 0 18 0.44597 18 0.992384Z" fill="#FCFCFC"/>
</svg>
