<svg width="9" height="14" viewBox="0 0 9 14" fill="none" xmlns="http://www.w3.org/2000/svg">
<path d="M6.3 2.53506V8.86296H2.7V2.53506H6.3ZM7.65 0.00390625H1.35C0.604687 0.00390625 0 0.57078 0 1.26949V12.2378C0 12.9365 0.604687 13.5034 1.35 13.5034H7.65C8.39531 13.5034 9 12.9365 9 12.2378V1.26949C9 0.57078 8.39531 0.00390625 7.65 0.00390625ZM1.35 12.6597C1.1025 12.6597 0.9 12.4699 0.9 12.2378V1.26949C0.9 1.03746 1.1025 0.847626 1.35 0.847626H7.65C7.8975 0.847626 8.1 1.03746 8.1 1.26949V12.2378C8.1 12.4699 7.8975 12.6597 7.65 12.6597H1.35ZM6.8625 1.69135H2.1375C1.95188 1.69135 1.8 1.83372 1.8 2.00774V9.39029C1.8 9.5643 1.95188 9.70668 2.1375 9.70668H6.8625C7.04812 9.70668 7.2 9.5643 7.2 9.39029V2.00774C7.2 1.83372 7.04812 1.69135 6.8625 1.69135ZM5.5125 10.9723H3.4875C3.30187 10.9723 3.15 11.1146 3.15 11.2887V11.4996C3.15 11.6736 3.30187 11.816 3.4875 11.816H5.5125C5.69812 11.816 5.85 11.6736 5.85 11.4996V11.2887C5.85 11.1146 5.69812 10.9723 5.5125 10.9723Z" fill="#FCFCFC"/>
</svg>
