<svg width="26" height="22" viewBox="0 0 26 22" fill="none" xmlns="http://www.w3.org/2000/svg">
<path d="M21.4264 7.39293L19.5372 5.50364L20.5028 4.53801C21.0024 4.03841 21.0024 3.22866 20.5028 2.72906L19.1463 1.37255C18.8965 1.12275 18.5692 0.998047 18.2419 0.998047C17.9145 0.998047 17.5872 1.12275 17.3374 1.37255L16.3718 2.33817L15.4066 1.37255C15.1568 1.12275 14.8295 0.998047 14.5022 0.998047C14.1748 0.998047 13.8475 1.12275 13.5977 1.37255L9.74131 5.22906C9.24173 5.72866 9.24173 6.53841 9.74131 7.03761L10.7069 8.00324L0.788751 17.9217C0.289166 18.4213 0.289166 19.2311 0.788751 19.7307L2.14522 21.0872C2.39502 21.337 2.72234 21.4617 3.04967 21.4617C3.377 21.4617 3.70433 21.337 3.95412 21.0872L13.8723 11.1687L15.7615 13.058V17.6247H17.0404C21.9847 17.6247 25.993 13.6163 25.993 8.67191V7.39293H21.4264ZM18.2407 2.27702H18.2419L19.5983 3.63354L18.6327 4.59916L17.2759 3.24185L18.2407 2.27702ZM3.04967 20.1827L1.6932 18.8262L11.6114 8.90772L12.9678 10.2642L3.04967 20.1827ZM17.0404 16.3458V12.5284L10.6458 6.13354L14.501 2.27702H14.5022L20.8968 8.67191H24.7141C24.7141 12.9033 21.2717 16.3458 17.0404 16.3458Z" fill="#FCFCFC"/>
</svg>
