<svg width="27" height="32" viewBox="0 0 27 32" fill="none" xmlns="http://www.w3.org/2000/svg">
<path d="M13.4999 13.052C11.6389 13.052 10.1243 14.566 10.1243 16.4271C10.1243 18.2883 11.6389 19.8022 13.4999 19.8022C15.361 19.8022 16.8755 18.2883 16.8755 16.4271C16.8755 14.566 15.361 13.052 13.4999 13.052ZM13.4999 17.8736C12.7008 17.8736 12.0535 17.2257 12.0535 16.4271C12.0535 15.6279 12.7014 14.9806 13.4999 14.9806C14.2985 14.9806 14.9464 15.6279 14.9464 16.4271C14.9464 17.2257 14.2991 17.8736 13.4999 17.8736ZM24.8737 16.4271C25.8108 15.2055 26.4834 13.979 26.7968 12.8109C27.1602 11.4482 27.0343 10.194 26.4316 9.18329C25.3329 7.34506 22.7938 6.5941 19.59 6.86712C18.1888 3.27745 16.0041 0.998047 13.4999 0.998047C10.9958 0.998047 8.81111 3.27685 7.41049 6.86652C4.20605 6.5935 1.66757 7.34446 0.57009 9.1839C-0.0343956 10.194 -0.160355 11.4482 0.203059 12.8109C0.516452 13.979 1.18904 15.2055 2.1262 16.4271C1.18904 17.6488 0.516452 18.8753 0.203059 20.0433C-0.160355 21.406 -0.0343957 22.6602 0.568282 23.671C1.52353 25.2681 3.55756 26.0528 6.1762 26.0528C6.5595 26.0528 6.98982 25.9835 7.39662 25.9498C8.79665 29.5611 10.9874 31.8562 13.4999 31.8562C16.0125 31.8562 18.2032 29.5611 19.6033 25.9498C20.0101 25.9835 20.4404 26.0528 20.8237 26.0528C23.4399 26.0528 25.4764 25.2681 26.4298 23.671C27.0343 22.6602 27.1608 21.406 26.7968 20.0433C26.4834 18.8753 25.8108 17.6488 24.8737 16.4271ZM2.06775 12.3119C1.83632 11.4531 1.89056 10.7328 2.22625 10.1723C2.78192 9.23995 4.19821 8.72705 6.15209 8.72705C6.35279 8.72705 6.56975 8.74332 6.78129 8.75417C6.4468 9.94269 6.19247 11.2355 6.02372 12.6042C5.05763 13.3516 4.17531 14.1278 3.41292 14.9216C2.76685 14.0236 2.28953 13.1388 2.06775 12.3119ZM5.81218 17.556C5.39935 17.1823 5.01544 16.8062 4.65926 16.4271C5.01484 16.048 5.39935 15.6719 5.81218 15.2983C5.79953 15.6725 5.78446 16.045 5.78446 16.4271C5.78446 16.8092 5.79892 17.1817 5.81218 17.556ZM2.22444 22.6819C1.89116 22.1214 1.83632 21.4012 2.06835 20.5423C2.29013 19.7154 2.76745 18.8307 3.41292 17.9327C4.17531 18.7264 5.05823 19.5027 6.02372 20.25C6.19247 21.6206 6.44741 22.914 6.78189 24.1037C4.50859 24.2212 2.83978 23.7107 2.22444 22.6819ZM18.7854 11.0667C18.2804 10.7461 17.7669 10.4297 17.2293 10.1301C16.8418 9.91376 16.4543 9.71367 16.0674 9.51839C16.8352 9.28816 17.5692 9.11579 18.2713 8.98802C18.4765 9.67212 18.6481 10.3658 18.7854 11.0667ZM13.4999 2.92668C14.9506 2.92668 16.4844 4.49551 17.6102 7.14376C16.3018 7.40352 14.9174 7.81637 13.5005 8.37025C12.083 7.81637 10.6987 7.40232 9.38968 7.14256C10.5155 4.4949 12.0493 2.92668 13.4999 2.92668ZM8.72854 8.98802C9.43066 9.11579 10.1647 9.28756 10.9319 9.51839C10.545 9.71367 10.1575 9.91376 9.77057 10.1301C9.23298 10.4297 8.7195 10.7461 8.21446 11.0667C8.3518 10.3658 8.52336 9.67212 8.72854 8.98802ZM8.21446 21.7875C8.7195 22.1082 9.23298 22.4246 9.77057 22.7241C10.1756 22.9501 10.577 23.1153 10.9814 23.3184C10.1979 23.5552 9.44513 23.7379 8.72914 23.8686C8.53388 23.2159 8.3585 22.5246 8.21446 21.7875ZM13.4999 29.9276C12.0439 29.9276 10.5034 28.3467 9.37642 25.6797C10.6915 25.4212 12.0746 25.0114 13.4999 24.4551C14.9253 25.012 16.3084 25.4212 17.6235 25.6797C16.4965 28.3467 14.956 29.9276 13.4999 29.9276ZM18.2713 23.868C17.556 23.7379 16.8038 23.5552 16.0203 23.3184C16.4241 23.1153 16.8255 22.9501 17.2299 22.7247C17.7675 22.4252 18.281 22.1088 18.786 21.7881C18.6414 22.524 18.4666 23.2147 18.2713 23.868ZM19.1567 19.2038C18.2671 19.8498 17.3131 20.4712 16.2915 21.0408C15.3453 21.5687 14.413 22.0165 13.5011 22.4029C12.5887 22.0165 11.6557 21.5687 10.7083 21.0408C9.6868 20.4706 8.73276 19.8498 7.84321 19.2038C7.75944 18.3166 7.71303 17.3908 7.71303 16.4271C7.71303 15.4634 7.75944 14.5377 7.84321 13.6505C8.73276 13.0044 9.6868 12.383 10.7083 11.8135C11.6539 11.2861 12.5881 10.8323 13.4993 10.4459C14.4112 10.8323 15.3453 11.2861 16.2915 11.8135C17.3131 12.3836 18.2671 13.0044 19.1567 13.6505C19.2398 14.5377 19.2869 15.4634 19.2869 16.4271C19.2869 17.3908 19.2398 18.3166 19.1567 19.2038ZM20.8484 8.72645C22.8017 8.72645 24.2186 9.23995 24.7761 10.1717C25.1093 10.7322 25.1642 11.4525 24.9321 12.3113C24.7104 13.1382 24.233 14.023 23.5876 14.921C22.8252 14.1272 21.9423 13.351 20.9768 12.6036C20.808 11.2343 20.5537 9.94209 20.2192 8.75357C20.4307 8.74272 20.6477 8.72645 20.8484 8.72645ZM21.1877 15.2983C21.6005 15.6719 21.9844 16.048 22.3406 16.4271C21.9844 16.8062 21.6005 17.1823 21.1877 17.556C21.2004 17.1817 21.2154 16.8092 21.2154 16.4271C21.2154 16.045 21.201 15.6725 21.1877 15.2983ZM24.7736 22.6819C24.1613 23.7107 22.4925 24.2212 20.218 24.1025C20.5531 22.9128 20.8074 21.62 20.9762 20.25C21.9423 19.5027 22.8246 18.7264 23.587 17.9327C24.2324 18.8307 24.7104 19.7154 24.9315 20.5423C25.1636 21.4012 25.1093 22.1214 24.7736 22.6819Z" fill="#FCFCFC"/>
</svg>
