<svg width="27" height="23" viewBox="0 0 27 23" fill="none" xmlns="http://www.w3.org/2000/svg">
<path d="M26.7637 11.4205L22.1632 3.99655C22.0294 3.79658 21.8147 3.69617 21.6 3.69617C21.3852 3.69617 21.1705 3.79658 21.0368 3.99655L16.4362 11.4205C16.273 11.6643 16.1793 11.9571 16.2038 12.2491C16.4345 15.0196 18.7624 17.1965 21.6 17.1965C24.4375 17.1965 26.7654 15.0196 26.9961 12.2491C27.0206 11.9571 26.9269 11.6643 26.7637 11.4205ZM21.6 15.8465C19.8458 15.8465 18.3283 14.7019 17.7702 13.1464H25.4145C24.8484 14.7171 23.3414 15.8465 21.6 15.8465ZM17.7917 11.7964L21.6016 5.64697L25.4382 11.7964H17.7917ZM22.6124 21.2466H14.175V6.30089C15.1153 6.05747 15.8502 5.32507 16.0996 4.38722L22.3555 2.29382C22.5323 2.23475 22.6276 2.04322 22.5686 1.86687L22.3543 1.22687C22.2952 1.0501 22.1037 0.954749 21.9273 1.01381L16.0878 2.96757C15.7684 1.83269 14.7369 0.996094 13.5 0.996094C12.0087 0.996094 10.8 2.2048 10.8 3.69617C10.8 4.04254 10.8705 4.37034 10.9915 4.67283L4.64446 6.79661C4.46769 6.85567 4.37235 7.04721 4.43141 7.22356L4.64572 7.86356C4.70479 8.04033 4.89632 8.13568 5.07266 8.07661L11.8416 5.81193C12.1293 6.03806 12.4605 6.20597 12.8254 6.30047V22.2592C12.8254 22.4456 12.9764 22.5967 13.1629 22.5967H22.6129C22.7993 22.5967 22.9504 22.4456 22.9504 22.2592V21.5842C22.9499 21.3977 22.7989 21.2466 22.6124 21.2466ZM12.15 3.69617C12.15 2.95196 12.7558 2.34613 13.5 2.34613C14.2442 2.34613 14.85 2.95196 14.85 3.69617C14.85 4.44037 14.2442 5.0462 13.5 5.0462C12.7558 5.0462 12.15 4.44037 12.15 3.69617ZM5.96323 9.3967C5.8295 9.1963 5.61477 9.09631 5.40003 9.09631C5.1853 9.09631 4.97057 9.19672 4.83683 9.3967L0.236309 16.8206C0.0730442 17.0645 -0.0206116 17.3573 0.00385707 17.6492C0.234622 20.4197 2.56252 22.5967 5.40003 22.5967C8.23755 22.5967 10.5654 20.4197 10.7962 17.6492C10.8207 17.3573 10.727 17.0645 10.5638 16.8206L5.96323 9.3967ZM5.40003 21.2466C3.64589 21.2466 2.12841 20.1021 1.57027 18.5466H9.21461C8.64846 20.1173 7.14153 21.2466 5.40003 21.2466ZM1.59179 17.1965L5.40172 11.0471L9.23823 17.1965H1.59179Z" fill="white"/>
</svg>
