<svg width="27" height="30" viewBox="0 0 27 30" fill="none" xmlns="http://www.w3.org/2000/svg">
<path d="M26.7308 18.5611C25.9995 15.5008 23.9575 13.5431 23.6987 10.8091C23.5075 8.85698 24.8913 7.57998 24.7507 5.21723C24.6044 2.78136 22.8999 1.00367 20.7004 0.998047C18.5009 1.00367 16.802 2.78136 16.6558 5.21723C16.5151 7.57998 17.8934 8.86261 17.7077 10.8091C17.449 13.5431 15.4013 15.5064 14.6757 18.5611C13.9725 21.5033 14.6982 26.4313 16.262 29.3228L16.5151 29.7954H24.8969L25.1501 29.3228C26.7083 26.4313 27.434 21.5033 26.7308 18.5611ZM22.9506 5.32412C23.0462 6.93303 22.0449 8.09753 21.8986 9.99897H19.5022C19.356 8.0919 18.349 6.93866 18.4503 5.32412C18.6528 1.94314 22.7481 1.94314 22.9506 5.32412ZM23.8 27.9952H17.6008C16.4195 25.4524 15.857 21.3176 16.4195 18.9774C17.0214 16.4571 18.7765 14.6457 19.3503 11.7935H22.0505C22.6243 14.6457 24.3794 16.4571 24.9813 18.9774C25.5382 21.3233 24.9757 25.4524 23.8 27.9952ZM9.2978 10.8147C9.11216 8.86261 10.4904 7.5856 10.3497 5.22286C10.2035 2.78136 8.499 1.0093 6.29948 1.00367C4.09996 1.00367 2.4011 2.78136 2.24921 5.22286C2.10296 7.5856 3.4868 8.86261 3.30116 10.8147C3.04239 13.5543 0.994758 15.512 0.269085 18.5667C-0.434086 21.5089 0.291587 26.4425 1.85544 29.3341L2.10858 29.8066H10.4904L10.7435 29.3341C12.3074 26.4425 13.033 21.5145 12.3299 18.5667C11.6042 15.512 9.55657 13.5487 9.2978 10.8147ZM8.54963 5.32974C8.64526 6.94428 7.64394 8.0919 7.49768 9.99897H5.10128C4.95502 8.0919 3.94808 6.94428 4.04933 5.32974C4.25185 1.94877 8.34711 1.94877 8.54963 5.32974ZM9.39906 28.0008H3.1999C2.01857 25.4581 1.45604 21.3233 2.01857 18.983C2.62049 16.4628 4.38123 14.6513 4.94939 11.7992H7.64957C8.22336 14.6513 9.97847 16.4628 10.5804 18.983C11.1429 21.3233 10.5804 25.4581 9.39906 28.0008Z" fill="#FCFCFC"/>
</svg>
