<svg width="27" height="27" viewBox="0 0 27 27" fill="none" xmlns="http://www.w3.org/2000/svg">
<path d="M25.2951 12.4259C26.1642 9.72282 24.2985 7.80197 23.2572 7.19891C23.3897 5.32968 21.9737 3.51008 19.9477 3.25843C19.3546 1.90093 18.0066 0.996094 16.4889 0.996094C15.2684 0.996094 14.1929 1.58426 13.5 2.48016C12.8071 1.58426 11.7316 0.996094 10.5111 0.996094C8.99338 0.996094 7.64537 1.90093 7.05176 3.25843C5.02577 3.51008 3.60976 5.32968 3.74228 7.19891C2.70099 7.80247 0.835809 9.72282 1.70438 12.4259C0.639761 13.2767 0 14.5681 0 15.9361C0 17.5606 0.864099 19.0323 2.24636 19.8339C2.1332 22.2252 4.06737 24.2359 6.46213 24.1744C7.1689 25.5334 8.57597 26.4089 10.1374 26.4089C11.5222 26.4089 12.7436 25.724 13.5 24.6836C14.2564 25.724 15.4778 26.4089 16.8626 26.4089C18.424 26.4089 19.8311 25.5334 20.5379 24.1744C22.9326 24.2359 24.8663 22.2248 24.7536 19.8339C26.1359 19.0323 27 17.5606 27 15.9361C27 14.5681 26.3602 13.2767 25.2951 12.4259ZM12.7029 7.84912C12.7029 9.14409 11.8065 10.2256 10.601 10.5314C10.4288 10.575 10.3116 10.7344 10.3116 10.9116V11.7147C10.3116 11.9663 10.5444 12.1569 10.7921 12.1063C11.5083 11.9603 12.1589 11.6392 12.7029 11.1935V22.2645C12.7029 23.6736 11.5524 24.8206 10.1374 24.8206C8.55463 24.8206 7.94217 23.7381 7.50193 22.4283C6.69342 22.5642 6.59415 22.5871 6.40108 22.5871C4.98607 22.5871 3.83559 21.44 3.83559 20.0309C3.83559 19.7227 3.87827 19.5772 4.01774 18.8908C2.75509 18.3696 1.59369 17.6892 1.59369 15.9361C1.59369 14.2554 2.73574 13.6057 3.72342 13.0404C3.09805 11.7643 3.08812 11.5911 3.08812 11.0967C3.08812 9.4136 4.17507 8.69142 5.53847 8.13402C5.4139 7.59301 5.33002 7.3096 5.33002 7.00186C5.33002 5.80369 6.30281 4.82787 7.5873 4.82787H7.60765L8.23947 4.84128C8.53279 3.70216 8.98544 2.5844 10.5111 2.5844C11.7192 2.5844 12.7029 3.56368 12.7029 4.76831V7.84912ZM22.9823 18.8908C23.1217 19.5772 23.1644 19.7227 23.1644 20.0309C23.1644 21.44 22.0139 22.5871 20.5989 22.5871C20.4063 22.5871 20.3071 22.5642 19.4981 22.4283C19.0578 23.7381 18.4454 24.8206 16.8626 24.8206C15.4476 24.8206 14.2971 23.6736 14.2971 22.2645V11.1935C14.8411 11.6392 15.4917 11.9603 16.2079 12.1063C16.4556 12.1569 16.6884 11.9663 16.6884 11.7147V10.9116C16.6884 10.7344 16.5712 10.575 16.399 10.5314C15.1935 10.2256 14.2971 9.14409 14.2971 7.84912V4.76831C14.2971 3.56368 15.2808 2.5844 16.4889 2.5844C18.0146 2.5844 18.4672 3.70216 18.76 4.84128L19.3919 4.82787H19.4122C20.6967 4.82787 21.6695 5.80369 21.6695 7.00186C21.6695 7.3096 21.5851 7.59351 21.461 8.13402C22.8239 8.69092 23.9114 9.4136 23.9114 11.0967C23.9114 11.5911 23.9015 11.7643 23.2761 13.0404C24.2638 13.6057 25.4058 14.2554 25.4058 15.9361C25.4058 17.6897 24.2449 18.3701 22.9823 18.8908Z" fill="#FCFCFC"/>
</svg>
